# xmcd
#
# Track frame offsets:
#	150
#	26639
#	51715
#	80559
#	106580
#	128192
#	150288
#	168973
#	190025
#	217582
#
# Disc length: 3277 seconds
#
# Revision: 2
# Processed by: cddbd v1.5.2PL0 Copyright (c) Steve Scherf et al.
# Submitted via: EZCDAudioConverter 8.0.2.1
#
DISCID=740ccb0a
DTITLE=Thái Hòa - Vol 12. Nhật - Việt. Diễm Xưa
DYEAR=2013
DGENRE=World Pop
TTITLE0=Diễm Xưa
TTITLE1=Mưa mùa hạ
TTITLE2=Tình xa
TTITLE3=Ca dao Mẹ
TTITLE4=Hoa vàng mấy độ
TTITLE5=Nghe tiếng muôn trùng
TTITLE6=Ở trọ
TTITLE7=Có một ngày như thế
TTITLE8=Rơi lệ ru người
TTITLE9=Như cánh vạc bay
EXTD=
EXTT0=
EXTT1=
EXTT2=
EXTT3=
EXTT4=
EXTT5=
EXTT6=
EXTT7=
EXTT8=
EXTT9=
PLAYORDER=
